# xmcd CD database file
#
# Track frame offsets:
#	150
#	25858
#	47095
#	64973
#	84793
#	103783
#	147090
#	162700
#	196938
#	212405
#	232848
#
# Disc length: 3403 seconds
#
# Revision: 0
# Processed by: cddbd v1.5.2PL0 Copyright (c) Steve Scherf et al.
# Submitted via: CDex 1.51
#
DISCID=8d0d490b
DTITLE=Hendrix, Jimi - Back to Berlin - September 4th 1970
DYEAR=1970
DGENRE=Blues
TTITLE0=Straight Ahead
TTITLE1=Spanish Castle Magic
TTITLE2=Sunshine Of Your Love
TTITLE3=Hey Baby/Land Of The New Rising Sun 
TTITLE4=Message To Love
TTITLE5=Machine Gun/The Breeze And I
TTITLE6=Purple Haze
TTITLE7=Red House
TTITLE8=Foxy Lady
TTITLE9=Ezy Rider
TTITLE10=Hey Joe
EXTD=YEAR: 1970
EXTT0=
EXTT1=
EXTT2=
EXTT3=
EXTT4=
EXTT5=
EXTT6=
EXTT7=
EXTT8=
EXTT9=
EXTT10=
PLAYORDER=
